<svg xmlns="http://www.w3.org/2000/svg" viewBox="0 0 49.999 70">
  <defs>
    <style>
      .cls-1 {
        opacity: 0.9;
      }

      .cls-2 {
        fill: #eceff1;
      }

      .cls-3 {
        fill: #94e7ef;
      }

      .cls-4 {
        fill: #413d4a;
      }
    </style>
  </defs>
  <g id="icon" class="cls-1" transform="translate(-55.421)">
    <path id="Path_277" data-name="Path 277" class="cls-2" d="M132.138,37.543H95.328A2.446,2.446,0,0,0,93,40.1V98.829a2.446,2.446,0,0,0,2.324,2.552h36.81a5.465,5.465,0,0,0,5.192-5.7V43.245A5.465,5.465,0,0,0,132.138,37.543Z" transform="translate(-32.873 -32.41)"/>
    <path id="Path_278" data-name="Path 278" class="cls-3" d="M102.116,7.522H65.306a2.446,2.446,0,0,0-2.324,2.552V68.809a2.446,2.446,0,0,0,2.324,2.552h36.81a5.465,5.465,0,0,0,5.192-5.7V13.224A5.465,5.465,0,0,0,102.116,7.522Z" transform="translate(-6.589 -6.494)"/>
    <path id="Path_280" data-name="Path 280" class="cls-4" d="M161.134,347.355h-24.3a1.033,1.033,0,0,0,0,2.057h24.3a1.033,1.033,0,0,0,0-2.057Z" transform="translate(-70.43 -299.865)"/>
    <path id="Path_281" data-name="Path 281" class="cls-4" d="M161.134,383.415h-24.3a1.033,1.033,0,0,0,0,2.057h24.3a1.033,1.033,0,0,0,0-2.057Z" transform="translate(-70.43 -330.995)"/>
    <path id="Path_282" data-name="Path 282" class="cls-4" d="M154.02,90.149a1.062,1.062,0,0,0-.056-.1,1.029,1.029,0,0,0-.07-.1,13.291,13.291,0,0,0-22.767,0,1.007,1.007,0,0,0-.072.1,1.065,1.065,0,0,0-.057.1,16.593,16.593,0,0,0,0,17.5,1.039,1.039,0,0,0,.057.1,1.018,1.018,0,0,0,.075.1,13.291,13.291,0,0,0,22.764-.007,1,1,0,0,0,.07-.1,1.052,1.052,0,0,0,.056-.1,16.593,16.593,0,0,0,0-17.5Zm-1.108,15.6a15.271,15.271,0,0,0-3.449-1.574,31,31,0,0,0,.414-4.247h4.729A14.154,14.154,0,0,1,152.912,105.747Zm-22.5-5.82h4.729a30.957,30.957,0,0,0,.414,4.247,15.268,15.268,0,0,0-3.449,1.574A14.152,14.152,0,0,1,130.413,99.927Zm1.694-7.877a15.27,15.27,0,0,0,3.449,1.574,31,31,0,0,0-.414,4.247h-4.729A14.151,14.151,0,0,1,132.107,92.05Zm11.339,2.6a23.5,23.5,0,0,0,4.194-.533A28.9,28.9,0,0,1,148,97.87h-4.556v-3.22Zm0-2.058v-6.8a6.564,6.564,0,0,1,2.782,3.412,17.945,17.945,0,0,1,.995,2.911A21.862,21.862,0,0,1,143.446,92.593Zm-1.873-6.8v6.8a21.864,21.864,0,0,1-3.777-.475,17.941,17.941,0,0,1,.995-2.911A6.564,6.564,0,0,1,141.573,85.795Zm0,8.856v3.22h-4.556a28.881,28.881,0,0,1,.361-3.753A23.5,23.5,0,0,0,141.573,94.651Zm-4.555,5.277h4.556v3.22a23.5,23.5,0,0,0-4.194.533A28.9,28.9,0,0,1,137.017,99.927Zm4.555,5.277V112a6.564,6.564,0,0,1-2.782-3.412,17.941,17.941,0,0,1-.995-2.911A21.888,21.888,0,0,1,141.573,105.2Zm1.873,6.8v-6.8a21.877,21.877,0,0,1,3.777.475,17.944,17.944,0,0,1-.995,2.911A6.565,6.565,0,0,1,143.446,112Zm0-8.856v-3.22H148a28.876,28.876,0,0,1-.361,3.753A23.492,23.492,0,0,0,143.446,103.147Zm6.431-5.277a30.964,30.964,0,0,0-.414-4.247,15.268,15.268,0,0,0,3.449-1.574,14.152,14.152,0,0,1,1.694,5.82h-4.729Zm1.943-7.5a13.455,13.455,0,0,1-2.777,1.255,17.14,17.14,0,0,0-2.12-5.133A12.3,12.3,0,0,1,151.819,90.367ZM138.1,86.489a17.141,17.141,0,0,0-2.12,5.133,13.455,13.455,0,0,1-2.777-1.255A12.3,12.3,0,0,1,138.1,86.489Zm-4.9,20.941a13.455,13.455,0,0,1,2.777-1.255,17.14,17.14,0,0,0,2.12,5.133A12.3,12.3,0,0,1,133.2,107.43Zm13.723,3.878a17.141,17.141,0,0,0,2.12-5.133,13.448,13.448,0,0,1,2.777,1.255A12.3,12.3,0,0,1,146.922,111.308Z" transform="translate(-63.953 -72.101)"/>
    <path id="Path_283" data-name="Path 283" class="cls-4" d="M104.488,56.464a.986.986,0,0,0,.937-1.028l-.027-44.6a6.717,6.717,0,0,0-4.089-6.348A6.206,6.206,0,0,0,95.531,0L60.749.036a.986.986,0,0,0-.937,1.028.986.986,0,0,0,.937,1.028l34.782-.036a4.367,4.367,0,0,1,4.141,3.6,5.122,5.122,0,0,1,.115,1.074V59.166a4.484,4.484,0,0,1-4.256,4.673H58.721a1.462,1.462,0,0,1-1.388-1.524V45.59a.941.941,0,1,0-1.873,0V62.315A3.436,3.436,0,0,0,58.721,65.9H59.2v.524A3.436,3.436,0,0,0,62.458,70h36.81c3.38,0,6.129-3.019,6.129-6.73V55.453a.941.941,0,1,0-1.873,0V63.27a4.484,4.484,0,0,1-4.256,4.673H62.459a1.462,1.462,0,0,1-1.388-1.524V65.9h34.46c3.38,0,6.129-3.019,6.129-6.73V6.965a4.814,4.814,0,0,1,1.865,3.869l.027,44.6A.985.985,0,0,0,104.488,56.464Z" transform="translate(-0.004)"/>
    <path id="Path_284" data-name="Path 284" class="cls-4" d="M55.421,48.115a.941.941,0,1,0,1.873,0l.036-44.535a1.462,1.462,0,0,1,1.388-1.524h3.766a.986.986,0,0,0,.937-1.028A.986.986,0,0,0,62.483,0H58.717a3.436,3.436,0,0,0-3.261,3.581Z"/>
  </g>
</svg>
