<svg xmlns="http://www.w3.org/2000/svg" viewBox="0 0 90 70">
  <defs>
    <style>
      .cls-1 {
        opacity: 0.9;
      }

      .cls-2 {
        fill: #8681aa;
      }

      .cls-3 {
        fill: #9b8ccc;
      }

      .cls-4 {
        fill: #91e7ef;
      }

      .cls-5 {
        fill: #413d4a;
      }
    </style>
  </defs>
  <g id="icon" class="cls-1" transform="translate(0 -55.66)">
    <path id="Path_266" data-name="Path 266" class="cls-2" d="M334.511,304.15l-25.187,15.763.77-8.432a16.051,16.051,0,0,0-6.769,12.187c0,4.373,3.046,6.044,6.769,3.714L334.511,312.1a8.025,8.025,0,0,0,3.385-6.093C337.9,303.821,336.372,302.985,334.511,304.15Z" transform="translate(-250.005 -204.644)"/>
    <path id="Path_267" data-name="Path 267" class="cls-2" d="M92.455,107.123,70.3,130.09l46.171,28.9,29.212-18.549Z" transform="translate(-57.946 -42.472)"/>
    <path id="Path_268" data-name="Path 268" class="cls-3" d="M58.244,128.224a10,10,0,0,1-2.459-2.449,1.708,1.708,0,0,1-.552-.183c-.777-.427-1.223-1.55-1.223-3.082a14.6,14.6,0,0,1,6.077-10.941L86.5,95.04a1.465,1.465,0,0,0,.013-2.481h0L36.326,61.148l-2.779-1.739L6.007,76.645A14,14,0,0,0,0,87.459,14,14,0,0,0,6.007,98.273l47.387,29.641a4.733,4.733,0,0,0,.407.255,5.389,5.389,0,0,0,4.576.153C58.333,128.29,58.288,128.258,58.244,128.224Z" transform="translate(0 -3.094)"/>
    <path id="Path_269" data-name="Path 269" class="cls-4" d="M116.825,156.309l-14.642-9.125-12.465,7.8,14.866,9.186Z" transform="translate(-73.947 -75.534)"/>
    <path id="Path_270" data-name="Path 270" class="cls-5" d="M89,98.47a3.783,3.783,0,0,0-3.865.367L60.271,114.4a1.467,1.467,0,0,0-.464,2.03,1.486,1.486,0,0,0,2.042.461l24.868-15.563c.525-.329.813-.3.855-.281s.216.252.216.869a6.468,6.468,0,0,1-2.65,4.771L61.031,121.774c-1.282.8-2.454,1.023-3.215.605s-1.2-1.521-1.2-3.027a14.394,14.394,0,0,1,5.992-10.787l27.45-17.179a1.467,1.467,0,0,0,0-2.491L37.314,55.886a1.488,1.488,0,0,0-1.578,0L7.952,73.275A16.407,16.407,0,0,0,.911,85.951v.785A16.407,16.407,0,0,0,7.952,99.412l41.324,25.862a1.486,1.486,0,0,0,2.042-.461,1.467,1.467,0,0,0-.464-2.03L9.53,96.921A13.591,13.591,0,0,1,3.873,86.736v-.785A13.591,13.591,0,0,1,9.53,75.766L36.525,58.871,86.491,90.142l-25.46,15.934a17.186,17.186,0,0,0-7.375,13.278c0,2.648.969,4.638,2.728,5.6a4.749,4.749,0,0,0,2.312.58,7.472,7.472,0,0,0,3.913-1.271l24.108-15.088a9.4,9.4,0,0,0,4.033-7.262A3.733,3.733,0,0,0,89,98.47Z" transform="translate(-0.751 0)"/>
    <path id="Path_271" data-name="Path 271" class="cls-5" d="M230.787,146.389a1.482,1.482,0,0,0,1.255-.688,1.467,1.467,0,0,0-.464-2.03L197.36,122.257a1.486,1.486,0,0,0-2.042.461,1.467,1.467,0,0,0,.464,2.03L230,146.163A1.481,1.481,0,0,0,230.787,146.389Z" transform="translate(-160.796 -54.776)"/>
    <path id="Path_272" data-name="Path 272" class="cls-5" d="M289.77,227.353a1.481,1.481,0,0,0,1.256-.69,1.466,1.466,0,0,0-.468-2.029L276.1,215.626a1.486,1.486,0,0,0-2.041.465,1.466,1.466,0,0,0,.468,2.029l14.455,9.008A1.48,1.48,0,0,0,289.77,227.353Z" transform="translate(-225.7 -131.833)"/>
    <path id="Path_273" data-name="Path 273" class="cls-5" d="M241.79,237.8a1.486,1.486,0,0,0-2.04.469,1.466,1.466,0,0,0,.472,2.028l14.566,9.039a1.474,1.474,0,1,0,1.568-2.5Z" transform="translate(-197.42 -150.138)"/>
    <path id="Path_274" data-name="Path 274" class="cls-5" d="M103.071,144.3l-12.307,7.7a1.467,1.467,0,0,0,.007,2.5l14.677,9.07a1.489,1.489,0,0,0,1.586-.014l3.269-2.1a1.466,1.466,0,0,0,.44-2.035,1.486,1.486,0,0,0-2.047-.437l-2.48,1.593-11.87-7.335,9.517-5.957,11.7,7.29-6.857,4.414a1.466,1.466,0,0,0-.44,2.035,1.487,1.487,0,0,0,2.048.437l8.811-5.669a1.467,1.467,0,0,0-.017-2.483L104.647,144.3A1.489,1.489,0,0,0,103.071,144.3Z" transform="translate(-74.239 -72.97)"/>
    <path id="Path_275" data-name="Path 275" class="cls-5" d="M222.629,271.078a1.466,1.466,0,0,0-.476-2.027l-14.678-9.07a1.486,1.486,0,0,0-2.039.473,1.466,1.466,0,0,0,.476,2.027l14.678,9.07a1.486,1.486,0,0,0,2.039-.473Z" transform="translate(-169.14 -168.442)"/>
    <path id="Path_276" data-name="Path 276" class="cls-5" d="M59.989,213.455a1.466,1.466,0,0,0,.476,2.027l36.227,22.387a1.474,1.474,0,1,0,1.564-2.5L62.028,212.982A1.486,1.486,0,0,0,59.989,213.455Z" transform="translate(-49.26 -129.654)"/>
  </g>
</svg>
